<svg xmlns="http://www.w3.org/2000/svg" viewBox="0 0 800 500" role="img">
  <defs>
    <linearGradient id="sky8" x1="0" y1="0" x2="0" y2="1">
      <stop offset="0" stop-color="#6a7a86"/>
      <stop offset="1" stop-color="#aab6b8"/>
    </linearGradient>
  </defs>
  <rect width="800" height="500" fill="url(#sky8)"/>
  <ellipse cx="240" cy="140" rx="180" ry="40" fill="#c3ccce" opacity="0.8"/>
  <ellipse cx="560" cy="200" rx="200" ry="45" fill="#b7c1c4" opacity="0.7"/>
  <ellipse cx="380" cy="260" rx="240" ry="50" fill="#9fabb0" opacity="0.7"/>
  <path d="M0 300 L200 250 L420 310 L640 260 L800 305 L800 500 L0 500 Z" fill="#5f6c74" opacity="0.9"/>
  <path d="M0 380 L240 340 L480 390 L720 345 L800 380 L800 500 L0 500 Z" fill="#48535b"/>
  <path d="M0 460 L280 425 L560 470 L800 435 L800 500 L0 500 Z" fill="#333c43"/>
  <g fill="#c9d2d4" opacity="0.5">
    <circle cx="150" cy="180" r="4"/><circle cx="420" cy="150" r="4"/><circle cx="640" cy="130" r="4"/>
    <circle cx="300" cy="220" r="3"/><circle cx="700" cy="220" r="3"/>
  </g>
</svg>
