<svg xmlns="http://www.w3.org/2000/svg" viewBox="0 0 800 500" role="img">
  <defs>
    <linearGradient id="sky4" x1="0" y1="0" x2="0" y2="1">
      <stop offset="0" stop-color="#48626e"/>
      <stop offset="1" stop-color="#93adae"/>
    </linearGradient>
  </defs>
  <rect width="800" height="500" fill="url(#sky4)"/>
  <path d="M0 120 L180 60 L320 140 L480 70 L640 150 L800 90 L800 500 L0 500 Z" fill="#3d5248"/>
  <path d="M0 200 L160 160 L340 230 L520 170 L700 240 L800 205 L800 500 L0 500 Z" fill="#2c3f39"/>
  <path d="M380 60 C 375 140, 390 200, 385 280 C 380 360, 395 420, 390 470 L430 470 C 425 410, 438 350, 430 270 C 424 190, 440 130, 432 60 Z" fill="#cfdde4"/>
  <g stroke="#e6f0f2" stroke-width="4" opacity="0.7" fill="none">
    <path d="M392 100 C 388 180, 396 260, 392 340"/>
    <path d="M415 90 C 412 170, 420 250, 414 330"/>
  </g>
  <ellipse cx="410" cy="462" rx="130" ry="16" fill="#a9c4cc"/>
  <ellipse cx="410" cy="458" rx="80" ry="9" fill="#cfdde4"/>
  <path d="M0 480 C 100 465, 200 485, 320 472 L340 500 L0 500 Z" fill="#20302b"/>
  <path d="M500 480 C 580 468, 660 484, 800 470 L800 500 L520 500 Z" fill="#20302b"/>
  <g fill="#18241f">
    <path d="M120 480 L120 420 L100 420 L135 360 L170 420 L150 420 L150 480 Z"/>
    <path d="M660 480 L660 425 L642 425 L672 368 L702 425 L686 425 L686 480 Z"/>
  </g>
</svg>
